<?xml version="1.0" encoding="utf-8"?>
<!-- Generator: Adobe Illustrator 16.0.0, SVG Export Plug-In . SVG Version: 6.00 Build 0)  -->
<!DOCTYPE svg PUBLIC "-//W3C//DTD SVG 1.1//EN" "http://www.w3.org/Graphics/SVG/1.1/DTD/svg11.dtd">
<svg version="1.1" id="Layer_1" xmlns="http://www.w3.org/2000/svg" xmlns:xlink="http://www.w3.org/1999/xlink" x="0px" y="0px"
	 width="999.999px" height="422.601px" viewBox="0 0 999.999 422.601" enable-background="new 0 0 999.999 422.601"
	 xml:space="preserve">
<g>
	<path d="M863.189,16.556c13.51,31.124,35.577,58.418,49.313,89.305c7.659,10.833,15.082,21.663,20.04,33.609
		c3.151,7.217,8.558,13.089,10.806,20.533c9.014,16.474,15.759,33.824,27.473,49.404c6.53,13.305,13.963,26.375,21.626,39.46
		c-0.677,6.304,10.133,7.218,6.971,13.982c-10.611,8.778-19.86,18.922-30.908,26.576c-26.391,24.782-55.943,48.442-74.67,79.545
		c-12.418,13.736-19.872,29.741-31.823,43.71l-2.71-2.705l-7.166-59.974c-3.845-3.151-9.922-0.688-14.429-2.258
		c-66.066,0.162-130.998,2.824-197.054,7.967c-42.838-0.708-85.449-5.463-128.729-2.342c-52.319-3.42-139.114,5.306-191.869,3.688
		c-51.18-4.077-106.646,6.24-157.824-2.805c-8.563,0.666-6.314,10.595-8.132,16.231c0.215,16.914-2.721,33.588-3.86,50.265
		c-1.129,1.366-2.248,2.044-3.84,1.807c-22.746-23.002-32.653-53.674-57.877-75.794c-10.375-15.328-23.659-29.548-34.469-44.439
		c-17.346-23.9-31.986-48.946-49.777-72.627c-2.249-2.485-2.249-5.637-4.281-8.122c39.932-40.558,69.271-85.633,97.94-130.924
		c10.605-14.655,19.856-30.876,30.913-45.979c7.9-10.364,15.581-21.411,23.701-31.307c1.346,0,2.7-0.226,3.377,1.118
		c-0.903,6.766-0.914,12.628-0.01,19.384c0.667,13.537-1.15,26.391-0.709,39.007c11.724,1.372,23.905,0.011,36.308,1.167
		c17.351,0.461,34.717-0.883,52.078,1.171c14.871-1.14,33.36,2.496,48.016-1.109c39.912-4.712,89.732,4.571,129.859,0.526
		c47.807-2.885,112.743-0.814,162.11-1.451c25.703-3.819,52.309-3.797,78.898-1.98c9.257,2.711,18.948,1.376,28.188,2.732
		c12.858-0.452,25.262,0.699,37.879,0.914l12.965,1.59c12.391,1.13,17.019,1.366,29.646,0.248c7.659,0.92,13.19-1.329,23.455-0.656
		c3.151,0.909,14.955-1.397,19.052-1.781c11.835-1.13,10.47,0.903,19.72-2.022c5.411,3.388,7.681-3.609,11.95-4.277
		c2.722-23.664,3.908-44.244,3.467-67.914C858.649-0.721,858.467,12.715,863.189,16.556"/>
	<path fill="#FFDD00" d="M988.372,257.54c-7.496-6.756-11.427-15.071-15.203-23.107c-2.784-5.973-5.431-11.599-9.518-16.826
		c-5.438-7.843-9.649-16.246-13.716-24.368c-3.282-6.54-6.682-13.306-10.664-19.698l-0.162-0.247l-0.073-0.279
		c-3.893-12.869-10.38-25.128-16.663-36.984c-1.948-3.671-3.95-7.455-5.856-11.22c-9.22-12.192-16.899-25.272-22.803-38.893
		c-10.675-17.719-16.73-28.766-25.088-44.052l-5.994-10.92c-1.407-1.713-4.807-6.141-7.885-12.167
		c-0.132,5.022-0.132,10.165-0.121,15.513c0.031,10.243,0.042,20.838-0.997,31.112c0.893,1.461,3.225,5.259,3.215,5.238
		c2.216,3.487,0.235,7.317-2.549,9.402c0,0-0.552,0.399-0.563,0.399l-0.666,0.031l-23.019,0.81
		c-14.204,0.525-27.62,1.03-41.776,1.171c-18.479,3.562-36.025,4.723-50.844,3.377c-1.55,0.411-4.087-0.12-9.539-1.396
		c-4.065-0.971-8.651-2.022-11.21-2.033c-5.595,0.21-10.994-0.356-16.189-0.903c-6.067-0.636-12.329-1.293-19.021-0.694
		c-0.378,0-36.801,0.646-53.06-0.494c-13.212-0.215-26.38,0.904-39.13,1.98c-13.94,1.172-28.365,2.4-42.543,1.807l-0.11-0.011
		l-0.115-0.02c-19.604-2.968-45.144-2.022-69.822-1.109c-18.696,0.677-36.35,1.324-51.306,0.367
		c-3.861,0.709-9.896,0.647-16.331,0.558c-7.044-0.105-15.029-0.215-18.738,0.914l-0.409,0.121l-0.421-0.031
		c-8.377-0.789-16.751-0.993-24.831-1.177c-10.469-0.246-21.29-0.483-32.173-2.064c-14.42-2.679-27.789-1.634-41.951-0.516
		c-10.249,0.804-20.849,1.634-31.958,0.946h-0.174l-0.173-0.042c-3.419-0.767-7.228-0.472-11.273-0.163
		c-4.785,0.378-9.733,0.709-14.382-0.7c-6.146,0.268-12.513-0.02-18.664-0.299c-8.341-0.369-16.957-0.767-24.831,0.246l-0.268,0.033
		l-0.263-0.022c-10.627-1.324-21.999-2.484-33.797-1.181c-2.165,0.641-6.661,2.011-8.5-2.422l-0.257-0.593l0.126-0.657
		c2.431-11.909,3.229-26.539,2.473-44.492c-18.085,25.634-35.509,51.903-52.372,77.38l-33.251,49.777
		c-9.486,17.881-23.517,33.619-37.1,48.842c-4.781,5.358-9.698,10.9-14.351,16.436l1.171,2.791
		c11.52,14.035,21.506,27.798,29.626,40.941c5.206,6.701,10.113,13.719,14.865,20.495c7.533,10.79,15.324,21.937,24.38,31.833
		l0.093,0.116l0.101,0.13c7.496,11.169,16.222,21.602,24.658,31.671c11.692,13.969,23.806,28.435,32.672,45.003l-0.141-0.236
		c0.903,1.302,1.322,2.71,1.7,3.949c0.384,1.287,0.72,2.416,1.514,3.288l0.194,0.226l0.132,0.248
		c0.062,0.132,0.126,0.193,0.193,0.314c0.074-4.659,0.936-9.523,1.839-14.257c0.809-4.313,1.57-8.398,1.702-12.103
		c0.147-4.322-0.016-8.204-0.131-11.65c-0.389-10.102-0.688-18.08,6.897-26.56l1.245-1.386l1.55,1.019
		c3.089,2.075,10.059,5.206,12.338,3.81l0.636-0.391l0.729,0.09c0,0,13.527,1.592,13.332,1.57
		c32.018,0.873,63.493,0.568,96.813,0.248c27.346-0.279,55.638-0.552,84.404-0.132c0.088,0,8.919,0.011,12.182-0.42
		c9.455-0.946,28.764-1.193,47.439-1.45c17.502-0.236,34.018-0.441,42.344-1.182c2.237-0.872,4.37-0.688,6.104-0.499
		c1.796,0.204,2.958,0.294,4.007-0.342l0.531-0.31l0.625,0.01c14.077,0.3,28.907,0.012,43.231-0.272
		c29.469-0.578,59.926-1.183,88.995,3.067c30.058,1.313,60.026-0.216,93.334-2.185l20.849-0.495
		c14.32-0.309,27.852-0.588,43.033-1.496c10.726,0,21.158-0.426,31.238-0.846c17.913-0.746,36.43-1.519,56.643,0.236l0.573,0.052
		l0.473,0.332l2.248,1.585l1.15,0.795l-0.268,1.365c-0.904,4.616-0.1,9.24,0.751,14.104c0.525,2.979,1.034,6.058,1.15,9.136
		c1.539,5.358,2.132,10.605,2.679,15.705c0.441,3.972,0.861,7.79,1.713,11.468c0.278-0.268,0.535-0.556,0.814-0.819
		c1.68-1.571,3.271-3.041,3.776-5.001l0.089-0.31l0.168-0.258c14.152-22.851,52.761-69.995,71.231-86.979l0.256-0.262l0.337-0.137
		c3.786-1.64,7.002-4.628,10.412-7.801c2.163-2.013,4.4-4.045,6.812-5.778c4.828-5.379,10.553-9.886,16.095-14.23
		c4.817-3.776,9.777-7.694,14.168-12.182c-0.021-0.288-0.131-0.635-0.421-1.234C988.65,258.301,988.523,257.907,988.372,257.54"/>
	<path d="M885.966,124.908l3.366-9.141l3.357-0.057l0.157,12.375l-2.18,0.021l-0.132-10.048h-0.063l-3.745,10.101l-1.497,0.021
		l-3.998-10.008h-0.068l0.121,10.049l-2.196,0.031l-0.151-12.371l3.367-0.031L885.966,124.908z M876.81,117.712l-3.818,0.057
		l0.136,10.564l-2.18,0.032l-0.143-10.574l-3.818,0.052l-0.021-1.797l9.813-0.13L876.81,117.712z"/>
	<path fill="#EF3E33" d="M218.101,106.969c-0.01,13.973,4.26,26.827,2.669,40.579h-1.572c-0.441-10.369-4.954-19.399-10.805-27.509
		c-0.215-9.477-10.81-9.241-15.78-14.662c-5.625,0.442-13.521-1.15-17.801,3.809c-12.182,5.411-12.417,19.395-19.636,28.624
		c-5.657,18.033-11.294,35.845-9.74,56.805c-1.139,19.168-2.504,36.76,1.088,55.239c-1.129,11.945,3.592,21.637,6.519,32.017
		c2.011,9.702,8.783,17.818,12.386,27.068c6.982,8.789,17.792,14.672,30.195,11.293c11.051-3.818,16.925-15.542,20.086-25.46
		c-0.441-6.529,2.936-11.504,3.388-17.817l4.732,0.461c0.226,12.849-0.237,26.833-1.603,39.676
		c-4.732,2.701-9.69,5.411-15.103,6.304c-7.673,5.18-19.161,1.334-28.187,3.357c-6.98-1.346-14.424-2.947-18.937-9.252
		c-6.756-1.581-6.98-10.153-12.392-13.53c-9.681-15.785-15.297-33.157-15.06-52.996c-3.377-6.314-2.474-14.426-4.949-21.181
		c3.39-13.999-4.484-26.617,0.484-39.922c2.721-17.808,5.195-35.395,11.52-51.406c4.749-5.173,2.727-13.06,9.267-17.34
		c4.517-11.725,18.037-17.135,28.65-22.304C191.269,97.918,207.285,97.718,218.101,106.969"/>
	<path fill="#EF3E33" d="M436.571,101.706c1.334,15.785,1.108,32.018,6.057,45.989c-1.581,1.14-3.614,0.463-5.411,0.667
		c-1.586-3.377-1.586-7.196-2.253-10.81c-2.022-6.991-2.022-14.651-7.422-20.077c-9.692-2.475-25.698-7.443-33.146,2.237
		c-0.914,22.541,4.475,44.641,0.625,66.519c0.667,11.493,1.56,25.014,0.431,37.191c-0.688,17.129,3.582,33.597,0.41,50.511
		c2.022,10.833,0.667,22.536,2.688,34.033c1.797,2.717,3.83,6.319,7.208,7.45c3.377,0.235,6.98-0.441,9.024,2.721
		c1.344,5.4-4.744,2.237-7.002,3.829c-13.973,0.883-27.058,0.431-40.579,1.087c-2.022-1.354-4.734-1.807-5.863-3.829
		c1.592-6.546,11.94-0.216,13.984-8.115c6.544-13.296,3.403-28.85,4.994-44.408c-1.344-19.158,2.496-37.868-1.087-56.821
		c2.485-17.131-0.431-36.729,0.484-54.557c-0.215-10.585-1.334-20.954-0.882-32.012c-0.667-4.501-5.853-7.212-9.24-9.029
		c-5.627,1.806-12.625,0.225-16.905,5.411c-7.443,2.237-6.325,11.031-10.164,16.226l-2.259,12.843
		c-1.119,0.903-3.378,2.475-4.281,0.667c-0.441-14.641,0.698-30.663,1.15-45.086c-0.667-4.732,4.959-4.732,8.122-3.604
		c4.506,2.485,10.369,1.818,15.559,2.71c20.061,0.021,35.846,0.032,54.788-2.205c6.304,1.581,12.617-0.215,17.818-2.69
		C435.216,98.77,436.346,99.898,436.571,101.706"/>
	<path fill="#EF3E33" d="M292.725,99.584c6.539,13.069,6.745,28.854,10.348,43.289c3.593,12.628,6.282,25.703,11.242,37.878
		c-0.462,15.774,9.444,27.068,8.079,43.29c2.925,23.003,15.759,41.96,16.2,66.076c2.689,9.691,5.164,20.292,13.957,27.058
		c-0.677,9.929-15.117,3.152-20.97,5.862c-4.958-2.475-11.734,3.142-14.65-2.721c-1.57-7.885,11.047-3.829,8.572-12.392
		c0.452-9.923-4.947-17.366-3.592-27.735c-0.894-6.088-4.949-11.058-4.949-17.817c-2.022-3.389-4.045-7.896-7.659-9.703
		c-14.203,0.452-29.983-1.365-42.617,1.539c-13.069,4.97-6.324,22.1-13.542,31.339c-0.452,9.702-7.003,22.546,1.55,29.769
		c1.581,0.452,3.387,1.13,3.839,2.7c0,2.033-0.01,4.517-2.258,4.969c-7.896-1.581-16.458-1.592-23.669-0.02
		c-4.745,0.45-4.96-4.282-3.83-7.675c0.892-3.152,4.958-0.437,6.996-2.013c7.885-9.25,8.348-21.643,10.842-33.141
		c8.121-18.938,8.594-41.03,13.111-61.549c6.545-13.511,6.566-29.983,12.429-43.946c0.688-12.392,7.012-22.325,7.012-35.168
		c5.421-11.488,4.529-25.702,7.691-38.32C288.443,99.799,290.476,99.347,292.725,99.584 M287.277,152.554
		c-1.57,1.345-2.71,2.937-3.151,4.964c-2.947,14.65-7.691,28.849-8.831,44.182c-2.473,4.281-1.807,9.918-2.71,14.649
		c-3.162,8.789-9.041,20.277-2.054,29.317c12.629,0.452,26.375,1.581,37.202-1.118c2.936-1.561,3.84-5.175,3.388-8.552
		c-8.1-15.118-6.519-34.275-11.909-50.523c-6.544-7.885-5.63-18.932-6.975-29.08C291.785,154.135,289.299,152.78,287.277,152.554"/>
	<path fill="#0097D7" d="M848.002,130.171v2.711c-0.903-0.011-1.344,1.118-2.032,1.57c-0.678,4.281,2.699,10.596-1.808,12.627
		c-2.484,0.226-5.41,0.894-6.313,3.604c0.451,2.023-0.903,3.142-2.259,4.502c-1.129-1.787-2.475-3.373-2.71-5.405
		c-9.005-10.832-14.404-24.364-24.327-34.738c-10.811,1.787-15.339,12.162-18.942,21.175c-1.129,7.885,5.174,18.264-3.172,23.665
		c-1.808,0.692-5.185-1.356-5.417,1.596c-0.01,8.109-2.042,15.092-4.527,22.309c1.334,21.637-0.936,45.989,6.035,66.056
		c3.841,5.863,4.056,13.08,9.24,18.265c0.894,5.868,6.534,8.353,8.567,13.536c12.618-0.215,24.568-5.389,36.75-8.089
		c13.521-1.108,25.481-6.745,34.049-18.237c6.993-4.959,9.251-12.617,14.672-18.471c-1.807-9.477-12.628-2.042-19.384-4.302
		c-9.019-4.522-11.74,13.296-17.818,1.57c-8.12-3.162-16.005,1.12-24.347,0.431c-3.152,2.927-0.462,10.585-6.551,9.907
		c-3.377-2.474,0.236-8.788-5.399-9.239c-3.151,0-5.852-1.813-8.109-3.846c-0.904-2.022-2.938-3.377-2.26-5.862
		c3.614-4.056,5.646-11.262,11.52-11.93c12.833-0.677,23.443,1.13,35.62,0.463l3.151-1.57c11.279,0,23.229,0.247,34.717-2.228
		c4.292,3.151,10.821,0.688,15.785,2.259c2.485,1.129,4.508,3.378,7.443,3.162c-0.451,6.089,1.335,14.431-1.592,20.066
		c-5.2,2.699-12.858-5.862-15.796,3.378c-3.829,11.714-6.991,23.659-11.734,35.157c-0.688,4.293,1.787,12.618-4.527,13.984
		c-3.168,11.719-21.874,7.637-20.98,21.615c6.078,1.365-0.678,6.539,1.57,9.702c-0.452,1.796-1.355,3.829-3.162,4.271
		c-1.344-4.496-11.047-3.829-7.197-9.681c1.119-0.237,2.022-1.355,2.7-2.033c-1.344-2.033-1.119-5.41-4.281-7.218
		c-8.562,2.701-16.914,5.4-25.928,6.52c-11.272-0.689-24.358-0.479-35.168-4.318c-9.024-2.701-11.273-11.51-17.351-17.813
		c0.011-3.604-2.238-6.767-5.4-8.8c-2.937,0.679-5.868-0.225-6.997-3.166c-0.441-4.056,3.619-9.016,0.468-13.521
		c-2.48-7.896,0.688-18.028-2.679-25.487c-2.249-20.052,0.021-41.021,0.031-61.544c3.84-11.714,6.775-23.659,13.1-34.253
		c10.833-16.448,24.381-37.191,45.561-39.881c3.855-1.129,8.125-2.237,12.417-1.119
		C834.943,106.492,844.398,118.673,848.002,130.171"/>
	<path fill="#0097D7" d="M510.968,97.477c9.466,0.237,18.271-4.275,28.639-3.808c34.503-1.098,80.04-5.369,94.218,33.199
		c5.164,29.768,5.369,61.563-7.055,88.149c-3.388,23.002-23.25,38.997-27.089,61.764c-0.688,1.57-2.938,1.118-3.829,0.441
		c-5.412-4.976-9.703,2.7-14.215,4.958c-7.443,4.271-8.133,14.641-17.146,15.082c-4.065,0.45-0.678,4.958-3.388,6.528
		c0,4.508,0.677,9.252-2.71,12.403c-5.862-2.249-1.119-19.158-10.133-10.821c-9.708,4.948-18.959,16.903-30.898,9.671
		c-3.388-1.131-9.02,2.474-10.826-1.141c0.903-1.571,0.451-3.829,0.451-5.852c0-6.088-11.939-2.043-5.4-8.798
		c-0.677-3.604-8.798-1.366-5.41-5.873c5.432-23.435-4.927-48.027-3.551-72.586c-6.313-3.162-4.28-12.181-3.818-18.269
		c2.925-7.885,5.862-18.49,1.592-26.602c1.355-7.224,0.688-15.559-5.4-20.077c-1.119-3.151,1.581-6.087,1.591-9.692
		c2.474-11.267-4.722-20.517-2.012-31.79c3.394-7.885-7.659-18.271,3.179-22.315C496.092,92.277,506.913,88.458,510.968,97.477
		 M568.902,112.611c-6.996-0.441-15.333-1.807-20.518,3.377c-3.162,6.304-9.239-4.066-14.661,1.118
		c1.141-4.743-4.044-2.936-6.529-3.387c-7.448,1.57-1.812,10.143-2.726,15.102c-4.508,7.674,0.452,16.903-2.711,25.036
		c-2.054,13.978,7.863,22.765,8.09,35.609c-0.914,6.314,2.248,12.188-2.722,16.909c-2.494,22.787,6.057,43.757,8.069,65.841
		c0.902,3.613,0.226,7.884,2.699,10.826c3.829,0.011,6.997-1.798,10.376-2.689c22.996-4.502,36.996-26.586,46.031-45.963
		c7.002-29.086,23.947-65.589,4.344-94.701C589.857,130.224,580.843,118.042,568.902,112.611"/>
	<path fill="#0097D7" d="M541.819,149.581c1.129,4.733-1.796,7.885-1.581,12.392c-1.13,0.903-2.938,0.225-4.292,0.452
		c1.14-5.638-7.659-6.551-4.497-12.403c2.26-2.699,4.066-5.185,7.218-6.529C542.055,143.494,540.7,147.548,541.819,149.581"/>
	<path fill="#0097D7" d="M713.428,114.523c11.939,7.443,14.402,22.331,23.644,31.801c3.151,7.905-1.817,17.597,2.237,24.353
		l4.28,1.14c-0.01,9.461,2.464,19.162-0.01,28.177l-1.592,1.129c-2.032,9.692,4.724,22.541-3.851,30.209
		c-3.84,13.297-4.075,27.274-1.602,41.021c-4.522,9.024-9.256,18.932-10.396,29.758c-1.355,3.378-5.195,2.484-8.122,3.378
		c-7.217,6.992-13.768,16.437-24.81,13.962c-4.743,8.337-14.886,4.723-23.223,4.949c-16.688-2.722-19.829-20.765-23.423-34.071
		l0.667,0.463l0.452-0.463c-4.723-6.529-3.818-16.231-5.39-24.348c-3.151-2.258-0.668-7.217-2.022-9.249
		c-2.905-34.492,6.372-66.719,10.899-99.638c7.218-19.163,9.714-40.353,21.674-57.924c4.749-4.733,11.505-6.314,18.271-4.723
		C699.213,100.761,705.989,107.752,713.428,114.523 M697.169,139.769c-1.807,1.334,0.441,2.926,1.57,3.378
		c-0.45,3.834,2.033,6.759,2.7,10.158c2.71,0.904,3.604-0.914,5.422-2.033c1.57,1.808,2.689,3.83,2.022,6.551
		c-2.947,10.131,3.582,19.824,2.679,29.756c4.733,1.797,1.796,11.488,8.11,9.692c0.237-17.141-1.108-34.942-8.982-49.377
		C705.732,144.969,704.612,137.509,697.169,139.769 M686.349,148.536c-0.021,11.289-7.47,19.388-5.437,31.359
		c-7.229,7.639-0.473,17.346,0.882,25.466c-3.173,3.604-2.259,9.241-3.173,13.974c-1.581,2.7-4.507,5.175-6.991,5.41
		c-2.485,9.924-0.247,18.723,0.431,28.63c8.347,1.807,6.303,11.514,9.24,17.365c-5.195,9.692,4.485,15.779,8.1,23.911
		c6.528,2.475,2.484-9.239,9.696-6.981c10.605-16.23,12.649-35.846,13.563-55.907c0.452-9.024-3.141-18.043-1.107-26.38
		c-5.175-11.272-6.971-23.89-10.801-35.867C696.471,162.309,698.063,149.456,686.349,148.536"/>
	<path fill="#0097D7" d="M483.38,218.751c1.57,9.029-3.172,16.678-2.27,25.917c-0.451-0.215-0.688,0.237-1.129,0.452
		c-0.667-2.011-2.711-0.215-3.604-1.57c-8.563-5.873-2.475-16.683-6.519-23.68c-1.355-6.313,2.71-10.821,5.861-14.65
		C483.391,205.22,480.228,214.47,483.38,218.751"/>
	<path fill="#0097D7" d="M913.979,249.271c2.475,3.829-2.031,6.54-3.84,8.778c-1.129,1.57-3.829,1.129-5.41,0.452
		c-1.345-3.162-1.57-5.637-2.699-8.574C904.288,244.748,911.73,244.297,913.979,249.271"/>
	<path fill="#0097D7" d="M825.829,251.903c-0.902,2.699,2.475,4.061,0.441,6.546c-2.037,4.281-5.19,1.118-7.438,4.271
		c-2.71-3.152-3.387-7.675-2.248-11.956C819.284,248.751,823.797,247.622,825.829,251.903"/>
	<path fill="#0097D7" d="M615.922,265.287c0.216,2.248-0.451,3.842-1.807,5.412h-1.581c0.451-1.355-0.452-2.271-1.581-2.712
		l0.462-4.732C614.115,262.351,614.566,264.383,615.922,265.287"/>
	<path fill="#0097D7" d="M901.566,267.746c0.226,1.346-0.452,2.259-1.581,2.7c-2.475-0.441-3.151-1.807-2.71-4.286
		c0.462-0.678,1.14-1.571,2.043-1.141C899.771,265.934,900.674,266.827,901.566,267.746"/>
	<path fill="#0097D7" d="M759.736,293.569c1.582,2.705,3.829,5.856,2.249,9.246c-3.614,6.087-6.54-2.271-10.821-0.689
		c2.475-4.044-4.281-6.319-1.118-10.815c3.377-1.118,5.637-2.033,9.24-1.57L759.736,293.569z"/>
	<path fill="#0097D7" d="M609.345,309.696c0.441,6.98,1.12,15.779-2.269,22.099c-1.129,1.346-2.7,0.226-3.829-0.452
		c-5.186-6.781-5.401-14.892-4.723-22.787c0.678-2.248,2.259-3.604,4.292-5.399C607.098,302.704,607.322,307.437,609.345,309.696"/>
</g>
</svg>
